<?xml version="1.0" encoding="UTF-8" standalone="no"?>
<!DOCTYPE svg PUBLIC "-//W3C//DTD SVG 1.1//EN" "http://www.w3.org/Graphics/SVG/1.1/DTD/svg11.dtd">
<svg width="100%" height="100%" viewBox="0 0 256 256" version="1.1" xmlns="http://www.w3.org/2000/svg" xmlns:xlink="http://www.w3.org/1999/xlink" xml:space="preserve" xmlns:serif="http://www.serif.com/" style="fill-rule:evenodd;clip-rule:evenodd;stroke-linejoin:round;stroke-miterlimit:2;">
    <g transform="matrix(0.346352,0,0,0.346352,-47.5208,-53.9776)">
        <path d="M511.48,369.591C510.769,365.561 510.955,355.742 512.777,352.218C524.622,329.304 558.871,347.778 568.403,360.908C582.24,376.16 593.45,396.053 600.309,415.46C608.234,433.329 612.324,455.292 614.979,474.51C627.105,474.889 627.003,477.197 637.439,482.116C640.956,483.774 651.619,486.643 655.644,487.258C658.49,487.723 660.933,488.013 663.641,489.073C667.126,490.321 673.079,492.789 675.641,495.545C680.98,500.4 691.511,514.282 690.728,521.528C697.824,536.029 696.17,555.126 703.175,568.396C707.328,571.693 709.143,572.491 711.024,577.364C709.083,584.508 701.735,584.445 695.919,582.328C685.298,578.461 675.953,566.821 671.291,556.929C670.283,558.687 670.016,569.979 670.184,572.574C671.465,592.41 657.816,618.824 662.907,637.355L663.511,640.487C663.663,643.596 663.686,644.697 661.405,647.046C657.474,651.095 650.054,653.895 644.965,650.626C633.444,643.128 621.192,627.446 617.302,614.151C616.148,610.207 614.685,602.903 613.456,599.749L613.159,599.009C601.188,627.901 568.726,663.297 540.552,677.35C531.251,683.286 518.739,688.739 507.981,691.919C491.476,696.538 475.754,696.989 459.094,692.348C455.017,691.345 450.906,690.244 446.836,689.192C442.985,687.973 440.341,687.052 436.985,684.81C433.627,682.236 428.885,675.181 429.462,670.605C429.448,669.735 429.333,669.671 429.065,668.809L427.012,666.127C426.9,664.171 426.952,664.764 428.18,662.758C431.164,656.117 438.088,651.286 441.707,645.428C458.821,617.726 487.741,603.481 506.332,577.007C519.686,557.991 524.874,543.109 527.798,520.344C518.45,511.846 506.281,508.851 494.15,512.12L494.018,511.458C501.05,504.059 521.131,513.178 528.9,514.998C528.133,513.928 526.522,512.293 525.566,511.263L519.641,507.469C512.933,504.469 506.328,502.461 498.975,503.727C497.087,502.808 495.029,502.565 492.965,502.418C505.568,488.496 518.821,484.486 537.114,488.925C537.864,474.604 533.09,452.285 530.12,437.881C525.706,416.472 512.46,391.596 511.48,369.591Z" style="fill:url(#_Linear1);fill-rule:nonzero;"/>
    </g>
    <g transform="matrix(0.346352,0,0,0.346352,-47.5208,-53.9776)">
        <path d="M494.15,512.12L494.018,511.458C501.05,504.059 521.131,513.178 528.9,514.998C528.133,513.928 526.522,512.293 525.566,511.263C528.047,512.565 528.687,512.862 531.376,513.602C532.861,515.306 539.557,522.791 541.197,523.082L539.911,519.326C539.667,518.468 538.872,518.365 538.401,516.362L539.974,516.254C541.925,516.096 543.512,516.061 545.472,516.037L545.737,515.318C546.522,521.825 542.708,518.504 547.77,525.478C547.634,525.29 549.817,537.458 550.661,539.968L551.613,540.567C553.681,538.672 555.812,535.979 557.658,533.803C561.988,529.856 564.376,528.521 569.616,525.826L573.458,524.883C584.094,526.031 589.529,526.829 596.895,536.002C611.341,553.993 611.146,575.846 613.519,597.534C613.57,597.995 613.32,598.572 613.159,599.009C601.188,627.901 568.726,663.297 540.552,677.35C531.251,683.286 518.739,688.739 507.981,691.919C491.476,696.538 475.754,696.989 459.094,692.348C455.017,691.345 450.906,690.244 446.836,689.192C442.985,687.973 440.341,687.052 436.985,684.81C433.627,682.236 428.885,675.181 429.462,670.605C429.448,669.735 429.333,669.671 429.065,668.809L427.012,666.127C426.9,664.171 426.952,664.764 428.18,662.758C431.164,656.117 438.088,651.286 441.707,645.428C458.821,617.726 487.741,603.481 506.332,577.007C519.686,557.991 524.874,543.109 527.798,520.344C518.45,511.846 506.281,508.851 494.15,512.12Z" style="fill:url(#_Linear2);fill-rule:nonzero;"/>
    </g>
    <g transform="matrix(0.346352,0,0,0.346352,-47.5208,-53.9776)">
        <path d="M494.15,512.12L494.018,511.458C501.05,504.059 521.131,513.178 528.9,514.998C528.133,513.928 526.522,512.293 525.566,511.263C528.047,512.565 528.687,512.862 531.376,513.602C532.861,515.306 539.557,522.791 541.197,523.082L539.911,519.326C539.667,518.468 538.872,518.365 538.401,516.362L539.974,516.254C541.925,516.096 543.512,516.061 545.472,516.037L545.737,515.318C546.522,521.825 542.708,518.504 547.77,525.478C547.634,525.29 549.817,537.458 550.661,539.968L551.613,540.567C553.681,538.672 555.812,535.979 557.658,533.803C558.875,535.087 560.003,536.438 559.651,538.422C556.938,553.724 548.823,568.839 541.001,582.095C539.896,583.968 536.147,589.196 535.835,589.849C532.847,599.47 512.501,617.947 503.592,622.909C498.008,627.927 495.213,628.397 489.396,632.496L468.293,647.466C465.549,649.438 462.32,651.955 459.53,653.766C458.637,654.345 454.432,654.23 452.782,654.481C453.477,655.232 453.644,655.099 454.759,655.526C454.37,658.854 442.439,661.737 439.404,665.876L437.95,666.299C436.324,664.271 435.701,663.941 433.551,662.367C431.463,661.741 430.399,662.241 428.18,662.758C431.164,656.117 438.088,651.286 441.707,645.428C458.821,617.726 487.741,603.481 506.332,577.007C519.686,557.991 524.874,543.109 527.798,520.344C518.45,511.846 506.281,508.851 494.15,512.12Z" style="fill:url(#_Linear3);fill-rule:nonzero;"/>
    </g>
    <g transform="matrix(0.346352,0,0,0.346352,-47.5208,-53.9776)">
        <path d="M525.566,511.263C528.047,512.565 528.687,512.862 531.376,513.602C532.861,515.306 539.557,522.791 541.197,523.082L539.911,519.326C539.667,518.468 538.872,518.365 538.401,516.362L539.974,516.254C541.925,516.096 543.512,516.061 545.472,516.037L545.737,515.318C546.522,521.825 542.708,518.504 547.77,525.478C547.634,525.29 549.817,537.458 550.661,539.968L551.613,540.567C551.319,540.959 548.96,542.457 548.701,542.747C547.197,544.435 545.333,547.526 544.086,549.461L543.784,549.174L544.071,549.374L543.731,548.636L544.35,548.86C542.981,547.308 543.819,542.142 543.176,539.866C542.466,537.35 541.764,535.001 541.852,532.379C540.124,528.393 538.68,525.189 536.049,521.718C534.864,520.888 529.758,516.05 528.9,514.998C528.133,513.928 526.522,512.293 525.566,511.263Z" style="fill:rgb(237,204,122);fill-rule:nonzero;"/>
    </g>
    <g transform="matrix(0.346352,0,0,0.346352,-47.5208,-53.9776)">
        <path d="M539.911,519.326C541.415,518.836 541.897,519.085 543.43,519.434C545.369,521.489 545.06,523.074 545.017,525.994L544.756,526.441L543.19,523.207C541.129,522.537 542.516,524.099 541.197,523.082L539.911,519.326Z" style="fill:rgb(244,220,143);fill-rule:nonzero;"/>
    </g>
    <g transform="matrix(0.346352,0,0,0.346352,-47.5208,-53.9776)">
        <path d="M503.592,622.909C503.661,622.285 503.797,620.53 504.252,620.124C510.06,614.954 517.779,610.681 523.498,605.428C527.775,601.498 532.193,593.376 535.835,589.849C532.847,599.47 512.501,617.947 503.592,622.909Z" style="fill:rgb(250,208,11);fill-rule:nonzero;"/>
    </g>
    <g transform="matrix(0.346352,0,0,0.346352,-47.5208,-53.9776)">
        <path d="M439.404,665.876C442.319,664.569 451.694,659.461 453.487,660.256L454.167,661.331C451.795,661.915 452.552,659.312 447.792,663.041L447.367,663.925C448.551,664.228 449.369,664.357 450.428,664.991C451.269,667 451.35,667.437 451.769,669.603C452.05,670.671 452.08,670.626 452.602,671.528C452.094,673.901 452.079,674.131 450.94,676.224C449.644,676.937 449.517,677.157 448.083,677.308C448.235,679.204 448.081,680.495 449.297,681.884C450.839,682.73 451.031,682.717 452.682,683.146C452.41,684.543 451.962,686.076 450.649,686.877C448.578,687.654 448.315,687.648 446.836,689.192C442.985,687.973 440.341,687.052 436.985,684.81C433.627,682.236 428.885,675.181 429.462,670.605C429.448,669.735 429.333,669.671 429.065,668.809L427.012,666.127C426.9,664.171 426.952,664.764 428.18,662.758C430.399,662.241 431.463,661.741 433.551,662.367C435.701,663.941 436.324,664.271 437.95,666.299L439.404,665.876Z" style="fill:rgb(161,156,8);fill-rule:nonzero;"/>
    </g>
    <g transform="matrix(0.346352,0,0,0.346352,-47.5208,-53.9776)">
        <path d="M428.18,662.758C430.399,662.241 431.463,661.741 433.551,662.367C435.701,663.941 436.324,664.271 437.95,666.299C438.492,667.285 439.079,668.552 439.804,669.346C441.372,672.8 444.145,680.21 440.594,682.955C439.045,683.895 438.647,684.117 436.985,684.81C433.627,682.236 428.885,675.181 429.462,670.605C429.448,669.735 429.333,669.671 429.065,668.809L427.012,666.127C426.9,664.171 426.952,664.764 428.18,662.758Z" style="fill:rgb(102,65,31);fill-rule:nonzero;"/>
    </g>
    <g transform="matrix(0.346352,0,0,0.346352,-47.5208,-53.9776)">
        <path d="M429.462,670.605C430.963,671.885 430.285,671.826 431.657,671.783C433.442,670.183 432.48,670.472 434.452,670.359C436.459,671.635 437.676,673.881 438.613,676.01C438.594,679.156 436.919,680.305 437.397,682.267C438.594,683.104 439.101,682.931 440.594,682.955C439.045,683.895 438.647,684.117 436.985,684.81C433.627,682.236 428.885,675.181 429.462,670.605Z" style="fill:rgb(62,35,19);fill-rule:nonzero;"/>
    </g>
    <g transform="matrix(0.346352,0,0,0.346352,-47.5208,-53.9776)">
        <path d="M428.18,662.758C430.399,662.241 431.463,661.741 433.551,662.367C432.768,666.63 433.285,667.084 429.065,668.809L427.012,666.127C426.9,664.171 426.952,664.764 428.18,662.758Z" style="fill:rgb(62,35,19);fill-rule:nonzero;"/>
    </g>
    <g transform="matrix(0.346352,0,0,0.346352,-47.5208,-53.9776)">
        <path d="M439.804,669.346C443.659,671.52 441.853,673.807 445.54,675.083C441.163,683.168 448.57,681.265 450.661,685.101C450.68,685.771 450.728,686.213 450.649,686.877C448.578,687.654 448.315,687.648 446.836,689.192C442.985,687.973 440.341,687.052 436.985,684.81C438.647,684.117 439.045,683.895 440.594,682.955C444.145,680.21 441.372,672.8 439.804,669.346Z" style="fill:rgb(131,131,12);fill-rule:nonzero;"/>
    </g>
    <g transform="matrix(0.346352,0,0,0.346352,-47.5208,-53.9776)">
        <path d="M460.093,691.701C467.537,693.576 480.152,692.127 488.15,692.396C492.287,692.368 496.535,692.829 500.65,692.79C502.443,692.773 505.251,691.485 507.257,691.214L507.981,691.919C491.476,696.538 475.754,696.989 459.094,692.348L460.093,691.701Z" style="fill:rgb(186,133,16);fill-rule:nonzero;"/>
    </g>
    <g transform="matrix(0.346352,0,0,0.346352,-47.5208,-53.9776)">
        <path d="M507.257,691.214C514.337,690.199 522.047,684.071 527.508,679.739C530.86,677.08 535.629,680.015 539.516,676.824L540.552,677.35C531.251,683.286 518.739,688.739 507.981,691.919L507.257,691.214Z" style="fill:rgb(186,133,16);fill-rule:nonzero;"/>
    </g>
    <g transform="matrix(0.346352,0,0,0.346352,-47.5208,-53.9776)">
        <path d="M451.769,669.603L452.09,665.724L452.596,665.782C453.645,668.135 454.379,672.08 453.693,674.71C455.576,674.892 455.213,673.042 456.555,673.911C456.34,675.922 455.583,676.221 453.977,677.804C453.537,681.355 456.726,682.122 458.923,683.773C456.284,683.145 455.424,683.169 452.682,683.146C451.031,682.717 450.839,682.73 449.297,681.884C448.081,680.495 448.235,679.204 448.083,677.308C449.517,677.157 449.644,676.937 450.94,676.224C452.079,674.131 452.094,673.901 452.602,671.528C452.08,670.626 452.05,670.671 451.769,669.603Z" style="fill:rgb(171,168,12);fill-rule:nonzero;"/>
    </g>
    <g transform="matrix(0.346352,0,0,0.346352,-47.5208,-53.9776)">
        <path d="M452.682,683.146C455.424,683.169 456.284,683.145 458.923,683.773C459.821,683.985 461.797,684.245 462.2,684.784C459.118,684.501 457.741,684.315 454.686,683.654C454.736,685.688 454.266,688.702 455.275,690.305C456.82,691.281 458.279,691.371 460.093,691.701L459.094,692.348C455.017,691.345 450.906,690.244 446.836,689.192C448.315,687.648 448.578,687.654 450.649,686.877C451.962,686.076 452.41,684.543 452.682,683.146Z" style="fill:rgb(161,156,8);fill-rule:nonzero;"/>
    </g>
    <g transform="matrix(0.346352,0,0,0.346352,-47.5208,-53.9776)">
        <path d="M614.979,474.51C627.105,474.889 627.003,477.197 637.439,482.116C640.956,483.774 651.619,486.643 655.644,487.258C658.49,487.723 660.933,488.013 663.641,489.073C667.126,490.321 673.079,492.789 675.641,495.545C680.98,500.4 691.511,514.282 690.728,521.528C697.824,536.029 696.17,555.126 703.175,568.396C707.328,571.693 709.143,572.491 711.024,577.364C709.083,584.508 701.735,584.445 695.919,582.328C685.298,578.461 675.953,566.821 671.291,556.929C670.197,552.439 669.745,547.265 668.825,542.588C666.3,529.76 661.444,519.271 652.34,509.912C649.72,506.527 648.031,503.609 645.082,500.133C639.113,502.636 633.599,502.908 628.661,505.075L626.847,503.444C624.894,504.331 624.931,504.275 622.767,504.504C623.225,501.935 623.457,499.532 623.732,496.946C622.409,492.725 620.821,491.214 617.557,488.058L616.505,486.924L616.568,482.508C620.133,483.981 617.091,486.291 621.953,485.107C622.901,484.359 623.619,484.484 624.867,484.418L625.394,484.393L622.99,482.911C622.249,481.241 622.358,481.315 620.867,480.282C617.525,479.497 615.304,478.163 614.979,474.51Z" style="fill:url(#_Linear4);fill-rule:nonzero;"/>
    </g>
    <g transform="matrix(0.346352,0,0,0.346352,-47.5208,-53.9776)">
        <path d="M614.979,474.51C627.105,474.889 627.003,477.197 637.439,482.116C640.956,483.774 651.619,486.643 655.644,487.258C658.49,487.723 660.933,488.013 663.641,489.073C658.168,490.112 654.538,489.066 648.848,490.631C646.152,491.307 643.383,492.028 640.759,492.933C635.508,494.743 633.115,497.263 627.484,497.639C627.233,498.306 627.088,498.272 626.494,498.84C624.986,498.546 625.061,498.192 623.732,496.946C622.409,492.725 620.821,491.214 617.557,488.058L616.505,486.924L616.568,482.508C620.133,483.981 617.091,486.291 621.953,485.107C622.901,484.359 623.619,484.484 624.867,484.418L625.394,484.393L622.99,482.911C622.249,481.241 622.358,481.315 620.867,480.282C617.525,479.497 615.304,478.163 614.979,474.51Z" style="fill:rgb(238,228,197);fill-rule:nonzero;"/>
    </g>
    <g transform="matrix(0.346352,0,0,0.346352,-47.5208,-53.9776)">
        <path d="M614.979,474.51C627.105,474.889 627.003,477.197 637.439,482.116C640.956,483.774 651.619,486.643 655.644,487.258C653.156,489.032 649.694,489.567 646.699,489.66L646.546,489.316L646.475,489.645C648.191,487.716 650.289,488.295 652.927,487.734C650.653,486.772 648.925,486.608 646.546,486.072C643.934,485.484 637.724,482.958 635.303,482.694C629.462,482.056 626.632,481.643 620.867,480.282C617.525,479.497 615.304,478.163 614.979,474.51Z" style="fill:rgb(235,230,217);fill-rule:nonzero;"/>
    </g>
    <g transform="matrix(0.346352,0,0,0.346352,-47.5208,-53.9776)">
        <path d="M616.568,482.508C620.133,483.981 617.091,486.291 621.953,485.107C623.337,486.705 623.223,486.683 623.642,488.82C625.123,489.784 628.871,488.539 631.666,488.469C630.179,491.31 626.365,495.34 626.234,498.226L627.432,497.641L626.966,497.495L627.484,497.639C627.233,498.306 627.088,498.272 626.494,498.84C624.986,498.546 625.061,498.192 623.732,496.946C622.409,492.725 620.821,491.214 617.557,488.058L616.505,486.924L616.568,482.508Z" style="fill:rgb(237,213,154);fill-rule:nonzero;"/>
    </g>
    <g transform="matrix(0.346352,0,0,0.346352,-47.5208,-53.9776)">
        <path d="M663.641,489.073C667.126,490.321 673.079,492.789 675.641,495.545L675.799,496.005C677.3,500.273 678.802,500.916 678.889,505.424L676.402,502.965C667.536,497.267 654.842,496.174 645.082,500.133C639.113,502.636 633.599,502.908 628.661,505.075L626.847,503.444C624.894,504.331 624.931,504.275 622.767,504.504C623.225,501.935 623.457,499.532 623.732,496.946C625.061,498.192 624.986,498.546 626.494,498.84C627.088,498.272 627.233,498.306 627.484,497.639C633.115,497.263 635.508,494.743 640.759,492.933C643.383,492.028 646.152,491.307 648.848,490.631C654.538,489.066 658.168,490.112 663.641,489.073Z" style="fill:rgb(234,185,59);fill-rule:nonzero;"/>
    </g>
    <g transform="matrix(0.346352,0,0,0.346352,-47.5208,-53.9776)">
        <path d="M663.641,489.073C667.126,490.321 673.079,492.789 675.641,495.545L675.799,496.005C677.3,500.273 678.802,500.916 678.889,505.424L676.402,502.965C675.255,500.222 673.863,500.143 672.838,498.896C668.23,493.29 655.738,493.578 652.739,491.862C650.935,491.027 650.824,491.032 648.848,490.631C654.538,489.066 658.168,490.112 663.641,489.073Z" style="fill:rgb(244,220,143);fill-rule:nonzero;"/>
    </g>
    <g transform="matrix(0.346352,0,0,0.346352,-47.5208,-53.9776)">
        <path d="M648.848,490.631C650.824,491.032 650.935,491.027 652.739,491.862C643.968,493.752 633.379,496.904 626.847,503.444C624.894,504.331 624.931,504.275 622.767,504.504C623.225,501.935 623.457,499.532 623.732,496.946C625.061,498.192 624.986,498.546 626.494,498.84C627.088,498.272 627.233,498.306 627.484,497.639C633.115,497.263 635.508,494.743 640.759,492.933C643.383,492.028 646.152,491.307 648.848,490.631Z" style="fill:rgb(237,213,154);fill-rule:nonzero;"/>
    </g>
    <g transform="matrix(0.346352,0,0,0.346352,-47.5208,-53.9776)">
        <path d="M675.641,495.545C680.98,500.4 691.511,514.282 690.728,521.528C689.616,520.097 688.035,517.152 686.902,515.435C684.331,511.54 682.009,508.876 678.889,505.424C678.802,500.916 677.3,500.273 675.799,496.005L675.641,495.545Z" style="fill:rgb(237,213,154);fill-rule:nonzero;"/>
    </g>
    <g transform="matrix(0.346352,0,0,0.346352,-47.5208,-53.9776)">
        <path d="M703.175,568.396C707.328,571.693 709.143,572.491 711.024,577.364C706.154,575.659 703.88,573.443 703.175,568.396Z" style="fill:rgb(186,133,16);fill-rule:nonzero;"/>
    </g>
    <g transform="matrix(0.346352,0,0,0.346352,-47.5208,-53.9776)">
        <path d="M573.458,524.883C579.382,521.998 585.912,522.476 591.966,524.992C599.74,528.223 602.436,532.726 607.031,539.182C607.749,540.538 611.542,548.262 612.082,549.072C612.666,547.936 612.267,548.386 613.233,547.684L615.639,548.315C615.124,546.017 613.334,544.124 613.633,542.249L615.262,541.345C615.536,539.645 614.707,539.496 613.514,538.482L613.45,537.542C615.002,538.12 616.011,538.272 616.627,540.163C617.568,543.053 619.439,547.198 620.253,549.921C620.968,547.515 618.829,542.536 617.298,540.492L618.02,539.678L622.387,539.81C623.144,539.831 622.85,539.869 623.544,539.582C625.057,536.737 628.28,539.544 631.371,538.718L631.834,537.622C630.974,535.83 630.917,535.371 630.781,533.377C631.939,535.378 633.815,539.905 634.532,541C642.61,562.221 637.893,585.127 639.653,607.322C640.156,613.671 644.087,622.673 644.391,626.641C645.552,629.516 650.735,640.162 652.586,642.143C650.985,642.971 651.084,642.887 650.097,644.396C652.805,644.424 655.63,644.149 658.384,644.102C660.291,642.906 661.713,641.847 663.511,640.487C663.663,643.596 663.686,644.697 661.405,647.046C657.474,651.095 650.054,653.895 644.965,650.626C633.444,643.128 621.192,627.446 617.302,614.151C616.148,610.207 614.685,602.903 613.456,599.749L613.159,599.009C613.32,598.572 613.57,597.995 613.519,597.534C611.146,575.846 611.341,553.993 596.895,536.002C589.529,526.829 584.094,526.031 573.458,524.883Z" style="fill:url(#_Linear5);fill-rule:nonzero;"/>
    </g>
    <g transform="matrix(0.346352,0,0,0.346352,-47.5208,-53.9776)">
        <path d="M573.458,524.883C579.382,521.998 585.912,522.476 591.966,524.992C599.74,528.223 602.436,532.726 607.031,539.182C607.749,540.538 611.542,548.262 612.082,549.072C617.312,561.89 618.072,572.868 619.066,586.347C618.583,606.871 626.067,624.184 640.3,638.859C643.045,641.689 645.864,644.979 650.097,644.396C652.805,644.424 655.63,644.149 658.384,644.102C660.291,642.906 661.713,641.847 663.511,640.487C663.663,643.596 663.686,644.697 661.405,647.046C657.474,651.095 650.054,653.895 644.965,650.626C633.444,643.128 621.192,627.446 617.302,614.151C616.148,610.207 614.685,602.903 613.456,599.749L613.159,599.009C613.32,598.572 613.57,597.995 613.519,597.534C611.146,575.846 611.341,553.993 596.895,536.002C589.529,526.829 584.094,526.031 573.458,524.883Z" style="fill:rgb(234,185,59);fill-rule:nonzero;"/>
    </g>
    <g transform="matrix(0.346352,0,0,0.346352,-47.5208,-53.9776)">
        <path d="M658.384,644.102C660.291,642.906 661.713,641.847 663.511,640.487C663.663,643.596 663.686,644.697 661.405,647.046C657.474,651.095 650.054,653.895 644.965,650.626C647.033,648.828 647.153,648.456 648.68,646.155C650.627,645.218 655.355,645.183 657.972,644.804L658.384,644.102Z" style="fill:rgb(102,65,31);fill-rule:nonzero;"/>
    </g>
    <g transform="matrix(0.346352,0,0,0.346352,-47.5208,-53.9776)">
        <path d="M619.066,586.347C619.595,588.318 619.55,592.719 620.272,593.688L621.809,593.216C623.671,588.943 620.914,570.142 622.349,568.234C622.8,569.13 624.009,587.561 624.267,590.256C624.781,595.601 626.306,603.15 626.774,608.418C627.743,611.04 630.206,618.244 631.328,620.406L631.792,620.987C633.665,623.363 646.724,640.714 647.58,641.249C647.933,638.741 641.499,630.93 640.629,627.59C643.285,628.069 648.497,640.771 650.216,641.308C649.322,637.715 642.821,629.173 643.398,625.855L644.391,626.641C645.552,629.516 650.735,640.162 652.586,642.143C650.985,642.971 651.084,642.887 650.097,644.396C645.864,644.979 643.045,641.689 640.3,638.859C626.067,624.184 618.583,606.871 619.066,586.347Z" style="fill:rgb(244,220,143);fill-rule:nonzero;"/>
    </g>
    <g transform="matrix(0.346352,0,0,0.346352,-47.5208,-53.9776)">
        <path d="M631.328,620.406C627.621,620.007 626.843,613.801 625.852,610.765C625.503,609.696 626.162,609.236 626.774,608.418C627.743,611.04 630.206,618.244 631.328,620.406Z" style="fill:rgb(237,204,122);fill-rule:nonzero;"/>
    </g>
    <g transform="matrix(0.346352,0,0,0.346352,-47.5208,-53.9776)">
        <path d="M630.781,533.377C631.939,535.378 633.815,539.905 634.532,541C634.028,541.65 633.539,542.29 633.047,542.95C632.603,542.439 632.241,542.048 631.778,541.562C629.645,541.417 629.05,540.806 627.22,541.665L627.639,542.818C629.192,543.231 629.062,542.886 630.938,542.05L630.981,542.11L630.503,542.202L630.598,543.056C629.457,544.735 629.874,545.599 628.478,546.877C627.919,543.478 626.637,542.282 624.661,539.45L623.544,539.582C625.057,536.737 628.28,539.544 631.371,538.718L631.834,537.622C630.974,535.83 630.917,535.371 630.781,533.377Z" style="fill:rgb(237,213,154);fill-rule:nonzero;"/>
    </g>
    <g transform="matrix(0.346352,0,0,0.346352,-47.5208,-53.9776)">
        <path d="M615.639,548.315C615.124,546.017 613.334,544.124 613.633,542.249L615.262,541.345C618.447,547.273 618.714,553.042 621.249,559.073C622.093,561.081 622.067,562.516 621.231,564.49C620.694,563.441 620.719,563.6 620.729,562.407C620.751,559.894 616.854,550.107 615.639,548.315Z" style="fill:rgb(237,213,154);fill-rule:nonzero;"/>
    </g>
    <g transform="matrix(0.346352,0,0,0.346352,-47.5208,-53.9776)">
        <path d="M492.965,502.418C505.568,488.496 518.821,484.486 537.114,488.925C536.555,493.202 537.708,497.452 537.476,501.997C537.413,505.71 537.338,509.903 537.888,513.58L538.623,514.134C540.018,514.144 542.574,512.782 543.851,512.167C542.045,513.663 540.547,514.341 539.974,516.254L538.401,516.362C538.872,518.365 539.667,518.468 539.911,519.326L541.197,523.082C539.557,522.791 532.861,515.306 531.376,513.602C528.687,512.862 528.047,512.565 525.566,511.263L519.641,507.469C512.933,504.469 506.328,502.461 498.975,503.727C497.087,502.808 495.029,502.565 492.965,502.418Z" style="fill:url(#_Linear6);fill-rule:nonzero;"/>
    </g>
    <g transform="matrix(0.346352,0,0,0.346352,-47.5208,-53.9776)">
        <path d="M537.888,513.58L537.492,514.486L537.009,514.539C535.383,512.607 532.53,503.916 533.889,501.763L537.476,501.997C537.413,505.71 537.338,509.903 537.888,513.58Z" style="fill:rgb(237,213,154);fill-rule:nonzero;"/>
    </g>
    <g transform="matrix(0.346352,0,0,0.346352,-47.5208,-53.9776)">
        <path d="M519.641,507.469L526.987,507.485C529.2,510.033 529.674,510.743 531.376,513.602C528.687,512.862 528.047,512.565 525.566,511.263L519.641,507.469Z" style="fill:rgb(243,229,183);fill-rule:nonzero;"/>
    </g>
    <g transform="matrix(0.346352,0,0,0.346352,-47.5208,-53.9776)">
        <path d="M624.876,527.331C624.628,523.264 616.454,519.311 615.733,515.981L616.741,515.677C624.908,517.293 623.278,520.621 628.572,523.766L629.007,523.339C630.738,521.614 630.857,521.523 631.928,519.4C635.43,519.169 638.011,523.039 641.227,523.087C642.295,523.103 644.654,521.224 646.752,521.603L647.701,522.534C646.147,523.844 639.873,523.8 638.554,524.841C638.983,526.121 639.445,526.374 640.423,527.327C643.761,528.026 645.86,525.123 648.777,525.831C649.043,527.157 649.151,526.518 648.613,527.794C645.48,528.483 639.919,527.972 638.474,528.999C637.743,531.637 640.583,531.887 640.935,535.129C640.343,536.328 639.939,537.203 639.184,538.326L639.444,539.409C640.809,540 641.455,539.789 642.177,540.764C641.105,541.448 640.044,542.131 639.035,542.906C637.695,541.432 637.903,539.846 635.789,537.835C634.578,535.303 632.548,530.177 630.075,528.975L628.933,529.553L630.781,533.377C630.917,535.371 630.974,535.83 631.834,537.622L631.371,538.718C628.28,539.544 625.057,536.737 623.544,539.582C622.85,539.869 623.144,539.831 622.387,539.81L618.02,539.678L617.298,540.492C618.829,542.536 620.968,547.515 620.253,549.921C619.439,547.198 617.568,543.053 616.627,540.163C616.011,538.272 615.002,538.12 613.45,537.542C613.811,534.043 615.543,533.851 618.734,533.593L619.289,533.553C620.088,530.344 616.278,528.31 615.731,525.613C615.257,523.27 614.809,523.27 612.834,522.019L613.242,521.555C615.218,521.54 622.166,527.432 624.876,527.331Z" style="fill:rgb(243,229,183);fill-rule:nonzero;"/>
    </g>
    <g transform="matrix(0.346352,0,0,0.346352,-47.5208,-53.9776)">
        <path d="M652.34,509.912C661.444,519.271 666.3,529.76 668.825,542.588C669.745,547.265 670.197,552.439 671.291,556.929C670.283,558.687 670.016,569.979 670.184,572.574C671.465,592.41 657.816,618.824 662.907,637.355C661.292,639.838 661.417,639.434 658.393,640.655L657.812,640.013L657.923,639.406C657.637,634.658 656.377,628.173 656.908,623.504C658.999,605.11 666.837,587.452 666.37,568.696C666.265,564.509 666.549,560.199 666.727,555.999C665.918,552.587 662.297,537.712 662.26,535.071C664.114,536.864 666.647,552.609 666.987,556.179C667.405,560.563 666.069,573.248 668.216,576.64C669.747,574.494 669.481,558.486 669.396,554.781C669.037,539.164 663.061,522.182 651.898,511.095L652.34,509.912Z" style="fill:rgb(237,213,154);fill-rule:nonzero;"/>
    </g>
    <g transform="matrix(0.346352,0,0,0.346352,-47.5208,-53.9776)">
        <path d="M569.616,525.826C571.159,522.665 573.202,522.913 573.392,522.422C577.253,512.446 588.147,516.079 596.134,519.61C601.091,521.802 610.748,531.832 613.127,537.436L613.45,537.542L613.514,538.482C614.707,539.496 615.536,539.645 615.262,541.345L613.633,542.249C613.334,544.124 615.124,546.017 615.639,548.315L613.233,547.684C612.267,548.386 612.666,547.936 612.082,549.072C611.542,548.262 607.749,540.538 607.031,539.182C602.436,532.726 599.74,528.223 591.966,524.992C585.912,522.476 579.382,521.998 573.458,524.883L569.616,525.826Z" style="fill:rgb(243,229,183);fill-rule:nonzero;"/>
    </g>
    <g transform="matrix(0.346352,0,0,0.346352,-47.5208,-53.9776)">
        <path d="M628.933,529.553L630.075,528.975C632.548,530.177 634.578,535.303 635.789,537.835C636.447,539.747 638.075,544.169 638.403,545.916C640.095,546.912 640.991,546.968 641.343,548.783C641.79,551.09 641.256,554.349 640.849,556.634L642.089,559.155C641.54,560.719 642.183,565.018 642.291,566.909C643.146,581.86 642.49,596.876 642.922,611.84C643.234,622.663 648.932,632.475 653.055,642.173L652.586,642.143C650.735,640.162 645.552,629.516 644.391,626.641C644.087,622.673 640.156,613.671 639.653,607.322C637.893,585.127 642.61,562.221 634.532,541C633.815,539.905 631.939,535.378 630.781,533.377L628.933,529.553Z" style="fill:rgb(234,185,59);fill-rule:nonzero;"/>
    </g>
    <g transform="matrix(0.346352,0,0,0.346352,-47.5208,-53.9776)">
        <path d="M662.968,560.784C662.877,559.057 662.642,557.158 663.087,555.528C664.633,556.907 664.777,556.479 666.727,555.999C666.549,560.199 666.265,564.509 666.37,568.696C666.837,587.452 658.999,605.11 656.908,623.504C656.377,628.173 657.637,634.658 657.923,639.406C656.74,637.697 656.435,635.451 656.052,633.316C652.803,615.187 661.082,595.429 662.55,577.009C663.039,570.882 664.1,567.001 662.968,560.784Z" style="fill:rgb(237,204,122);fill-rule:nonzero;"/>
    </g>
    <g transform="matrix(0.346352,0,0,0.346352,-47.5208,-53.9776)">
        <path d="M662.968,560.784C662.225,559.824 659.578,532.758 656.139,529.361C653.128,526.387 648.684,516.576 644.6,516.092C643.231,517.317 643.858,517.092 642.238,517.448L641.479,516.707C642,514.218 642.116,517.331 644.219,514.638L643.961,513.337C642.69,511.71 642.107,511.618 640.193,510.816C642.404,511.022 650.428,513.46 651.509,515.209L651.158,515.362C648.386,515.216 648.152,514.6 645.683,513.611C646.347,515.209 649.79,519.192 651.44,519.711C653.789,519.095 654.721,518.447 656.626,520.129C655.195,520.305 653.851,520.495 652.426,520.713L652.197,521.406L653.128,522.622L654.107,521.667C655.721,522.481 656.804,524.726 658.09,526.437C658.435,525.763 658.749,525.24 659.134,524.59L659.64,524.769C660.372,528.512 661.468,531.517 662.26,535.071C662.297,537.712 665.918,552.587 666.727,555.999C664.777,556.479 664.633,556.907 663.087,555.528C662.642,557.158 662.877,559.057 662.968,560.784Z" style="fill:rgb(244,220,143);fill-rule:nonzero;"/>
    </g>
    <g transform="matrix(0.346352,0,0,0.346352,-47.5208,-53.9776)">
        <path d="M639.444,539.409L640.098,538.642C642.081,536.294 641.43,534.99 642.796,533.29C643.965,534.363 643.714,534.594 644.243,536.367L644.055,536.888L643.105,536.827C645.708,545.615 651.882,574.706 647.81,582.345L647.139,582.534C646.558,580.716 647.897,575.98 647.754,572.611C646.379,572.517 645.935,572.84 644.64,573.352L643.348,572.832L643.046,571.745C643.982,570.149 643.364,570.755 644.955,569.843C646.509,569.94 645.992,569.597 646.811,570.483C645.759,570.774 644.915,571.002 643.971,571.561C645.145,572.081 645.296,571.77 646.835,571.484C649.392,568.857 645.971,564.63 646.717,560.845C645.001,559.776 643.155,560.793 642.089,559.155L640.849,556.634C641.256,554.349 641.79,551.09 641.343,548.783C640.991,546.968 640.095,546.912 638.403,545.916C638.075,544.169 636.447,539.747 635.789,537.835C637.903,539.846 637.695,541.432 639.035,542.906C640.044,542.131 641.105,541.448 642.177,540.764C641.455,539.789 640.809,540 639.444,539.409Z" style="fill:rgb(237,213,154);fill-rule:nonzero;"/>
    </g>
    <g transform="matrix(0.346352,0,0,0.346352,-47.5208,-53.9776)">
        <path d="M511.48,369.591C510.769,365.561 510.955,355.742 512.777,352.218C524.622,329.304 558.871,347.778 568.403,360.908L568.044,360.673C562.976,357.294 558.43,352.34 553.011,349.417C539.194,341.963 528.826,336.04 519.118,352.839C519.049,352.959 513.52,356.969 512.894,357.457C511.063,360.871 513.276,365.375 511.48,369.591Z" style="fill:rgb(235,230,217);fill-rule:nonzero;"/>
    </g>
    <g transform="matrix(0.346352,0,0,0.346352,-47.5208,-53.9776)">
        <path d="M616.505,486.924L617.557,488.058C620.821,491.214 622.409,492.725 623.732,496.946C623.457,499.532 623.225,501.935 622.767,504.504C624.931,504.275 624.894,504.331 626.847,503.444L628.661,505.075C624.639,507.424 620.621,509.845 616.459,511.931C616.32,503.612 616.695,495.314 616.505,486.924Z" style="fill:rgb(234,185,59);fill-rule:nonzero;"/>
    </g>
    <g transform="matrix(0.346352,0,0,0.346352,-47.5208,-53.9776)">
        <path d="M617.557,488.058C620.821,491.214 622.409,492.725 623.732,496.946C623.457,499.532 623.225,501.935 622.767,504.504C622.521,502.973 621.806,502.262 620.885,501.008C621.749,499.16 621.677,500.059 621.418,498.265C619.571,494.433 617.88,492.489 617.557,488.058Z" style="fill:rgb(237,204,122);fill-rule:nonzero;"/>
    </g>
    <g transform="matrix(0.346352,0,0,0.346352,-47.5208,-53.9776)">
        <path d="M628.661,505.075C633.599,502.908 639.113,502.636 645.082,500.133C648.031,503.609 649.72,506.527 652.34,509.912L651.898,511.095L650.692,510.342L648.799,510.933C637.621,502.969 634.582,501.653 622.648,509.64C623.953,510.594 624.27,510.468 624.685,511.712C623.03,511.231 622.756,511.129 621.211,510.371C616.55,512.791 609.701,516.175 604.378,515.982C605.298,515.118 612.652,514.105 616.459,511.931C620.621,509.845 624.639,507.424 628.661,505.075Z" style="fill:rgb(254,254,254);fill-rule:nonzero;"/>
    </g>
    <g transform="matrix(0.346352,0,0,0.346352,-47.5208,-53.9776)">
        <path d="M616.568,482.508C616.244,483.426 615.872,485.088 615.612,486.088C615.605,484.361 615.271,481.87 615.452,480.315C614.896,481.5 614.501,483.014 613.6,483.421C614.953,470.016 609.802,447.098 605.934,433.906C604.861,430.248 600.17,418.123 600.309,415.46C608.234,433.329 612.324,455.292 614.979,474.51C615.304,478.163 617.525,479.497 620.867,480.282C622.358,481.315 622.249,481.241 622.99,482.911L625.394,484.393L624.867,484.418C623.619,484.484 622.901,484.359 621.953,485.107C617.091,486.291 620.133,483.981 616.568,482.508Z" style="fill:rgb(243,229,183);fill-rule:nonzero;"/>
    </g>
    <g transform="matrix(0.346352,0,0,0.346352,-47.5208,-53.9776)">
        <path d="M581.7,384.676C583.377,385.625 582.866,384.963 583.523,386.519C581.299,392.741 586.625,391.817 589.35,396.843C590.098,398.223 588.524,398.736 589.643,401.394L589.835,400.806C591.002,399.751 590.323,400.008 591.764,399.725L591.565,401.926L593.088,402.173C594.01,403.434 596.169,411.11 596.169,412.792C596.463,413.958 596.63,414.798 596.833,415.985L596.288,416.104C595.497,415.308 591.946,405.807 590.131,404.085C589.027,402.479 587.869,398.331 586.867,396.993C584.088,393.28 582.97,390.018 581.096,386.102L581.7,384.676Z" style="fill:rgb(238,228,197);fill-rule:nonzero;"/>
    </g>
    <g transform="matrix(0.346352,0,0,0.346352,-47.5208,-53.9776)">
        <path d="M794.236,376.622L867.121,376.601C867.708,386.315 867.336,400.232 867.359,410.262L867.444,472.58C867.468,545.551 866.576,619.608 867.243,692.414L821.75,692.481L794.046,692.554C793.955,684.413 794.06,676.175 794.102,668.026L839.623,668.004L839.569,401.46C824.795,400.876 809.087,401.601 794.121,401.215C794.062,392.996 793.959,384.841 794.236,376.622Z" style="fill:rgb(250,208,11);fill-rule:nonzero;"/>
    </g>
    <g transform="matrix(0.346352,0,0,0.346352,-47.5208,-53.9776)">
        <path d="M260.172,360.531L333.425,360.518L333.353,385.12C318.595,385.108 302.739,384.824 288.072,385.318L288.108,647.696L313.625,647.693L333.502,647.636L333.511,672.056C309.372,671.755 284.641,672.018 260.463,672.032L260.172,360.531Z" style="fill:rgb(250,208,11);fill-rule:nonzero;"/>
    </g>
    <g transform="matrix(0.346352,0,0,0.346352,-47.5208,-53.9776)">
        <path d="M178.075,389.746C182.292,389.641 186.466,389.689 190.68,389.722C191.187,395.447 190.793,404.704 190.702,410.64L190.2,445.189L187.962,570.989L169.875,571.015L159.497,570.998C158.936,559.907 159.04,548.363 158.849,537.205L157.979,478.053L156.809,389.85L178.075,389.746Z" style="fill:rgb(250,208,11);fill-rule:nonzero;"/>
    </g>
    <g transform="matrix(0.346352,0,0,0.346352,-47.5208,-53.9776)">
        <path d="M169.642,599.373C181.784,597.14 193.458,605.105 195.808,617.225C198.157,629.345 190.305,641.095 178.209,643.561C165.946,646.061 154,638.077 151.618,625.792C149.236,613.506 157.334,601.637 169.642,599.373Z" style="fill:rgb(250,208,11);fill-rule:nonzero;"/>
    </g>
    <g transform="matrix(0.346352,0,0,0.346352,-47.5208,-53.9776)">
        <path d="M492.965,502.418C495.029,502.565 497.087,502.808 498.975,503.727C506.328,502.461 512.933,504.469 519.641,507.469L525.566,511.263C526.522,512.293 528.133,513.928 528.9,514.998C521.131,513.178 501.05,504.059 494.018,511.458L494.15,512.12L493.358,512.615C480.634,524.827 478.877,540.847 473.423,556.514C469.713,567.17 459.321,584.491 448.609,589.378C448.162,588.028 448.285,587.966 448.217,586.483C446.643,586.091 445.806,585.017 444.595,583.871L442.073,583.018C452.374,571.836 453.046,560.019 457.9,546.219C460.487,538.864 466.358,524.392 471.505,518.811C479.922,508.11 481.399,508.559 492.965,502.418Z" style="fill:rgb(244,220,143);fill-rule:nonzero;"/>
    </g>
    <g transform="matrix(0.346352,0,0,0.346352,-47.5208,-53.9776)">
        <path d="M448.217,586.483C464.37,564.463 458.858,531.153 487.674,514.38C489.955,513.053 490.837,512.027 493.358,512.615C480.634,524.827 478.877,540.847 473.423,556.514C469.713,567.17 459.321,584.491 448.609,589.378C448.162,588.028 448.285,587.966 448.217,586.483Z" style="fill:rgb(234,185,59);fill-rule:nonzero;"/>
    </g>
    <g transform="matrix(0.346352,0,0,0.346352,-47.5208,-53.9776)">
        <path d="M471.505,518.811C473.744,518.369 474.018,517.995 475.935,516.605L475.424,517.421C473.932,519.764 466.788,527.988 466.377,529.808C465.039,535.731 462.84,542.335 460.632,548.409C457.496,557.034 453.072,580.102 444.595,583.871L442.073,583.018C452.374,571.836 453.046,560.019 457.9,546.219C460.487,538.864 466.358,524.392 471.505,518.811Z" style="fill:rgb(243,229,183);fill-rule:nonzero;"/>
    </g>
    <g transform="matrix(0.346352,0,0,0.346352,-47.5208,-53.9776)">
        <path d="M492.965,502.418C495.029,502.565 497.087,502.808 498.975,503.727C490.773,506.709 481.747,509.728 475.935,516.605C474.018,517.995 473.744,518.369 471.505,518.811C479.922,508.11 481.399,508.559 492.965,502.418Z" style="fill:rgb(235,230,217);fill-rule:nonzero;"/>
    </g>
    <g transform="matrix(0.346352,0,0,0.346352,-47.5208,-53.9776)">
        <path d="M442.073,583.018L444.595,583.871C445.806,585.017 446.643,586.091 448.217,586.483C448.285,587.966 448.162,588.028 448.609,589.378C445.627,590.766 442.216,589.861 440.939,586.605C440.359,585.124 441.325,584.236 442.073,583.018Z" style="fill:rgb(250,208,11);fill-rule:nonzero;"/>
    </g>
    <defs>
        <linearGradient id="_Linear1" x1="0" y1="0" x2="1" y2="0" gradientUnits="userSpaceOnUse" gradientTransform="matrix(-116.435,27.2743,-27.2743,-116.435,652.453,477.265)"><stop offset="0" style="stop-color:rgb(223,198,140);stop-opacity:1"/><stop offset="1" style="stop-color:rgb(250,242,207);stop-opacity:1"/></linearGradient>
        <linearGradient id="_Linear2" x1="0" y1="0" x2="1" y2="0" gradientUnits="userSpaceOnUse" gradientTransform="matrix(-66.6059,-61.6363,61.6363,-66.6059,570.821,655.04)"><stop offset="0" style="stop-color:rgb(207,147,24);stop-opacity:1"/><stop offset="1" style="stop-color:rgb(246,205,40);stop-opacity:1"/></linearGradient>
        <linearGradient id="_Linear3" x1="0" y1="0" x2="1" y2="0" gradientUnits="userSpaceOnUse" gradientTransform="matrix(63.7739,49.2114,-49.2114,63.7739,452.085,565.17)"><stop offset="0" style="stop-color:rgb(227,187,31);stop-opacity:1"/><stop offset="1" style="stop-color:rgb(250,226,113);stop-opacity:1"/></linearGradient>
        <linearGradient id="_Linear4" x1="0" y1="0" x2="1" y2="0" gradientUnits="userSpaceOnUse" gradientTransform="matrix(-28.1637,14.791,-14.791,-28.1637,694.545,531.154)"><stop offset="0" style="stop-color:rgb(231,177,15);stop-opacity:1"/><stop offset="1" style="stop-color:rgb(214,149,18);stop-opacity:1"/></linearGradient>
        <linearGradient id="_Linear5" x1="0" y1="0" x2="1" y2="0" gradientUnits="userSpaceOnUse" gradientTransform="matrix(-23.2569,4.06519,-4.06519,-23.2569,642.969,587.289)"><stop offset="0" style="stop-color:rgb(221,190,134);stop-opacity:1"/><stop offset="1" style="stop-color:rgb(247,230,179);stop-opacity:1"/></linearGradient>
        <linearGradient id="_Linear6" x1="0" y1="0" x2="1" y2="0" gradientUnits="userSpaceOnUse" gradientTransform="matrix(-39.5976,-23.2858,23.2858,-39.5976,542.069,511.58)"><stop offset="0" style="stop-color:rgb(246,231,190);stop-opacity:1"/><stop offset="1" style="stop-color:rgb(251,248,230);stop-opacity:1"/></linearGradient>
    </defs>
</svg>
