<?xml version="1.0" encoding="UTF-8" standalone="no"?>
<!DOCTYPE svg PUBLIC "-//W3C//DTD SVG 1.1//EN" "http://www.w3.org/Graphics/SVG/1.1/DTD/svg11.dtd">
<svg width="100%" height="100%" viewBox="0 0 1024 768" version="1.1" xmlns="http://www.w3.org/2000/svg" xmlns:xlink="http://www.w3.org/1999/xlink" xml:space="preserve" xmlns:serif="http://www.serif.com/" style="fill-rule:evenodd;clip-rule:evenodd;stroke-linejoin:round;stroke-miterlimit:2;">
    <g transform="matrix(1,0,0,1,0,-256)">
        <path d="M511.289,337.098C513.1,325.858 518.255,321.045 529.486,319.413C543.941,319.644 557.317,326.579 566.92,337.056C597.238,370.133 608.579,409.371 614.811,451.96L615.013,453.003C624.416,450.8 630.549,457.215 638.56,460.424C645.623,463.253 653.891,464.169 661.106,465.974C674.477,469.871 679.84,475.414 687.187,487.582C688.963,490.524 690.82,495.707 691.22,499.097C692.746,504.004 694.099,508.29 695.339,513.261C697.432,521.651 698.972,540.69 704.105,546.959C706.675,548.878 708.926,550.561 710.437,553.515C711.156,554.624 711.289,555.815 711.005,557.074C709.71,562.147 701.504,561.935 697.642,560.748C685.226,556.932 677.441,546.01 671.277,535.372C669.988,543.879 671.156,551.109 670.274,559.098C668.435,575.744 657.837,602.171 663.897,618.169C660.606,620.838 659.321,622.139 655.03,622.816L651.148,623.13C648.655,623.742 646.597,626.82 645.081,628.877C644.485,628.222 639.036,623.85 637.757,622.684C629.31,615.1 622.521,605.929 618.457,595.293C616.331,589.727 615.517,582.865 613.217,577.482C597.971,610.665 570.055,639.715 538.074,657.182C532.535,660.419 525.926,663.664 519.888,665.872C513.311,668.427 504.449,671.863 497.466,672.491C488.568,674.571 473.859,673.902 464.957,671.855C462.966,671.665 457.32,670.228 455.097,669.715C453.043,669.044 450.318,668.417 448.179,667.856C443.852,666.726 441.508,665.962 437.772,663.535C433.05,660.371 430.029,654.673 429.471,649.082C428.267,644.5 426.047,645.391 428.137,640.741C431.273,634.189 436.943,630.078 440.693,624.368C452.179,606.618 468.462,593.031 484.16,579.158C510.804,555.611 522.55,533.146 527.7,498.343C525.927,497.047 524.17,495.635 522.434,494.279C526.96,494.674 527.7,496.902 531.577,495.727C529.924,494.177 529.609,494.017 527.611,492.874C528.321,492.495 529.436,491.614 530.128,491.107C528.297,489.309 519.868,485.66 517.093,484.39C509.521,481.509 506.901,481.171 498.83,481.593C496.65,481.619 495.62,481.426 493.438,481.095C496.339,471.701 521.6,461.666 530.821,465.904C533.202,465.955 535.258,466.341 537.603,466.702C537.431,449.102 531.661,419.975 526.709,403.007C520.378,381.316 509.838,360.978 511.289,337.098Z" style="fill:url(#_Linear1);fill-rule:nonzero;"/>
    </g>
    <g transform="matrix(1,0,0,1,0,-256)">
        <path d="M527.611,492.874C528.321,492.495 529.436,491.614 530.128,491.107C534.052,493.949 536.933,495.905 539.544,500.118L540.585,500.23L540.905,499.599L539.278,496.544C542.867,496.903 543.615,498.062 545.593,498.391C550.229,508.034 548.9,513.213 551.146,518.555C553.351,516.308 555.382,514.058 557.493,511.724C563.61,506.155 567.942,504.677 575.585,501.82C579.447,504.927 585.531,504.348 589.442,507.158C602.975,516.88 608.555,535.148 610.813,550.899C611.337,555.21 613.586,575.096 613.217,577.482C597.971,610.665 570.055,639.715 538.074,657.182C532.535,660.419 525.926,663.664 519.888,665.872C513.311,668.427 504.449,671.863 497.466,672.491C488.568,674.571 473.859,673.902 464.957,671.855C462.966,671.665 457.32,670.228 455.097,669.715C453.043,669.044 450.318,668.417 448.179,667.856C443.852,666.726 441.508,665.962 437.772,663.535C433.05,660.371 430.029,654.673 429.471,649.082C428.267,644.5 426.047,645.391 428.137,640.741C431.273,634.189 436.943,630.078 440.693,624.368C452.179,606.618 468.462,593.031 484.16,579.158C510.804,555.611 522.55,533.146 527.7,498.343C525.927,497.047 524.17,495.635 522.434,494.279C526.96,494.674 527.7,496.902 531.577,495.727C529.924,494.177 529.609,494.017 527.611,492.874Z" style="fill:url(#_Linear2);fill-rule:nonzero;"/>
    </g>
    <g transform="matrix(1,0,0,1,0,-256)">
        <path d="M527.611,492.874C528.321,492.495 529.436,491.614 530.128,491.107C534.052,493.949 536.933,495.905 539.544,500.118L540.585,500.23L540.905,499.599L539.278,496.544C542.867,496.903 543.615,498.062 545.593,498.391C550.229,508.034 548.9,513.213 551.146,518.555C553.351,516.308 555.382,514.058 557.493,511.724C559.572,512.928 559.638,512.503 560.41,514.262C559.728,525.747 546.053,552.998 539.092,563.208C535.23,568.873 527.507,578.383 523.006,584.074C522.992,584.1 522.978,584.126 522.965,584.152C518.996,586.82 505.121,595.985 503.593,599.842C503.152,601.196 502.242,602.275 501.056,603.043C487.92,611.541 475.068,620.32 462.625,629.827C459.914,631.898 456.427,631.418 454.381,633.191C453.016,635.769 452.981,636.001 450.272,637.734C448.982,638.56 447.014,639.71 445.922,640.69C443.866,641.667 440.295,643.493 438.19,643.777C436.157,641.835 435.431,641.183 433.099,639.64C430.812,639.887 430.303,639.982 428.137,640.741C431.273,634.189 436.943,630.078 440.693,624.368C452.179,606.618 468.462,593.031 484.16,579.158C510.804,555.611 522.55,533.146 527.7,498.343C525.927,497.047 524.17,495.635 522.434,494.279C526.96,494.674 527.7,496.902 531.577,495.727C529.924,494.177 529.609,494.017 527.611,492.874Z" style="fill:rgb(240,212,94);fill-rule:nonzero;"/>
    </g>
    <g transform="matrix(1,0,0,1,0,-256)">
        <path d="M527.611,492.874C528.321,492.495 529.436,491.614 530.128,491.107C534.052,493.949 536.933,495.905 539.544,500.118L540.585,500.23L540.905,499.599L539.278,496.544C542.867,496.903 543.615,498.062 545.593,498.391C550.229,508.034 548.9,513.213 551.146,518.555C548.673,521.114 546.597,524.908 544.902,527.997C543.252,517.844 543.632,511.149 538.358,502.056C536.817,500.273 533.667,496.705 531.577,495.727C529.924,494.177 529.609,494.017 527.611,492.874Z" style="fill:rgb(234,206,130);fill-rule:nonzero;"/>
    </g>
    <g transform="matrix(1,0,0,1,0,-256)">
        <path d="M428.137,640.741C430.303,639.982 430.812,639.887 433.099,639.64C435.431,641.183 436.157,641.835 438.19,643.777C440.295,643.493 443.866,641.667 445.922,640.69L447.152,640.855C449.191,641.988 449.444,642.062 451.01,643.722L451.177,645.325L452.192,645.864L452.141,646.136L451.404,645.897L451.932,646.702L452.982,644.618C454.83,646.598 453.193,650.405 454.446,652.815L455.779,651.95L456.17,652.545C454.326,656.38 453.841,656.16 455.595,660.208L455.583,661.197C454.565,662.973 455.011,667.457 455.097,669.715C453.043,669.044 450.318,668.417 448.179,667.856C443.852,666.726 441.508,665.962 437.772,663.535C433.05,660.371 430.029,654.673 429.471,649.082C428.267,644.5 426.047,645.391 428.137,640.741Z" style="fill:rgb(176,163,7);fill-rule:nonzero;"/>
    </g>
    <g transform="matrix(1,0,0,1,0,-256)">
        <path d="M428.137,640.741C430.303,639.982 430.812,639.887 433.099,639.64C435.431,641.183 436.157,641.835 438.19,643.777C439.443,645.829 440.666,647.761 441.762,649.906C441.938,652.505 442.204,655.483 442.278,658.053C441.528,661.089 440.712,662.294 437.772,663.535C433.05,660.371 430.029,654.673 429.471,649.082C428.267,644.5 426.047,645.391 428.137,640.741Z" style="fill:url(#_Linear3);fill-rule:nonzero;"/>
    </g>
    <g transform="matrix(1,0,0,1,0,-256)">
        <path d="M428.137,640.741C430.303,639.982 430.812,639.887 433.099,639.64C432.531,643.824 433.807,645.36 430.474,648.484L430.869,648.609C429.823,649.059 430.299,648.935 429.471,649.082C428.267,644.5 426.047,645.391 428.137,640.741Z" style="fill:rgb(77,58,43);fill-rule:nonzero;"/>
    </g>
    <g transform="matrix(1,0,0,1,0,-256)">
        <path d="M442.278,658.053L444.086,658.838C447.246,660.982 448.475,661.429 452.044,662.882C450.855,664.435 449.434,666.41 448.179,667.856C443.852,666.726 441.508,665.962 437.772,663.535C440.712,662.294 441.528,661.089 442.278,658.053Z" style="fill:rgb(143,132,18);fill-rule:nonzero;"/>
    </g>
    <g transform="matrix(1,0,0,1,0,-256)">
        <path d="M441.762,649.906C444.191,651.363 445.056,651.84 447.178,653.786L444.086,658.838L442.278,658.053C442.204,655.483 441.938,652.505 441.762,649.906Z" style="fill:rgb(143,132,18);fill-rule:nonzero;"/>
    </g>
    <g transform="matrix(1,0,0,1,0,-256)">
        <path d="M464.957,671.855C467.308,669.501 480.355,670.639 484.283,670.26C487.008,669.997 494.263,670.317 496.774,671.386C496.935,671.626 497.403,672.256 497.466,672.491C488.568,674.571 473.859,673.902 464.957,671.855Z" style="fill:rgb(214,158,22);fill-rule:nonzero;"/>
    </g>
    <g transform="matrix(1,0,0,1,0,-256)">
        <path d="M519.888,665.872C519.985,660.688 532.392,653.562 538.074,657.182C532.535,660.419 525.926,663.664 519.888,665.872Z" style="fill:rgb(186,131,24);fill-rule:nonzero;"/>
    </g>
    <g transform="matrix(1,0,0,1,0,-256)">
        <path d="M522.965,584.152C520.231,588.273 508.261,599.012 503.593,599.842C505.121,595.985 518.996,586.82 522.965,584.152Z" style="fill:rgb(248,196,17);fill-rule:nonzero;"/>
    </g>
    <g transform="matrix(1,0,0,1,0,-256)">
        <path d="M450.272,637.734C451.99,637.915 452.744,637.694 453.938,638.56C453.406,639.319 453.576,639.158 453.344,639.333C453.101,641.74 452.783,641.784 451.01,643.722C449.444,642.062 449.191,641.988 447.152,640.855L445.922,640.69C447.014,639.71 448.982,638.56 450.272,637.734Z" style="fill:rgb(248,196,17);fill-rule:nonzero;"/>
    </g>
    <g transform="matrix(1,0,0,1,0,-256)">
        <path d="M450.272,637.734C451.99,637.915 452.744,637.694 453.938,638.56C453.406,639.319 453.576,639.158 453.344,639.333C450.746,638.893 449.627,639.709 447.152,640.855L445.922,640.69C447.014,639.71 448.982,638.56 450.272,637.734Z" style="fill:rgb(214,158,22);fill-rule:nonzero;"/>
    </g>
    <g transform="matrix(1,0,0,1,0,-256)">
        <path d="M455.595,660.208C457.4,660.812 459.297,661.208 460.533,662.578C459.174,663.086 456.861,661.851 455.583,661.197L455.595,660.208Z" style="fill:rgb(214,158,22);fill-rule:nonzero;"/>
    </g>
    <g transform="matrix(1,0,0,1,0,-256)">
        <path d="M645.666,478.279C657.3,475.649 662.858,474.615 674.303,479.863C675.08,480.219 676.072,480.668 676.89,480.9C680.086,484.373 682.147,486.748 684.865,490.55C686.407,492.707 689.492,497.416 691.22,499.097C692.746,504.004 694.099,508.29 695.339,513.261C697.432,521.651 698.972,540.69 704.105,546.959C706.675,548.878 708.926,550.561 710.437,553.515C711.156,554.624 711.289,555.815 711.005,557.074C709.71,562.147 701.504,561.935 697.642,560.748C685.226,556.932 677.441,546.01 671.277,535.372C669.988,543.879 671.156,551.109 670.274,559.098C668.435,575.744 657.837,602.171 663.897,618.169C660.606,620.838 659.321,622.139 655.03,622.816C654.411,621.593 653.841,620.542 653.169,619.346C643.069,601.306 642.486,589.953 642.942,569.735C643.261,555.596 641.968,540.773 640.89,526.651C640.855,526.194 638.459,523.362 637.888,521.086C639.309,520.223 639.991,519.575 641.226,518.501C640.429,515.866 638.859,517.123 638.271,514.519C640.31,511.821 640.509,511.48 639.739,508.173C640.926,505.632 645.253,506.325 647.939,504.822C645.138,503.913 640.776,506.013 638.315,504.773C638.686,501.091 641.438,503.794 643.267,501.367L642.9,500.605C639.4,501.443 637.07,499.563 633.626,497.963C631.366,498.249 631.176,499.756 628.351,501.166C623.623,498.185 620.912,493.306 616.099,491.635C613.2,492.262 609.973,494.287 606.553,493.786C609.798,491.974 613.174,491.651 616.553,489.969C622.161,486.872 628.392,483.162 634.512,481.463C637.659,480.382 642.357,479.214 645.666,478.279Z" style="fill:rgb(229,204,145);fill-rule:nonzero;"/>
    </g>
    <g transform="matrix(1,0,0,1,0,-256)">
        <path d="M645.666,478.279C657.3,475.649 662.858,474.615 674.303,479.863C675.08,480.219 676.072,480.668 676.89,480.9C680.086,484.373 682.147,486.748 684.865,490.55C686.407,492.707 689.492,497.416 691.22,499.097C692.746,504.004 694.099,508.29 695.339,513.261C697.432,521.651 698.972,540.69 704.105,546.959C706.675,548.878 708.926,550.561 710.437,553.515C711.156,554.624 711.289,555.815 711.005,557.074C709.71,562.147 701.504,561.935 697.642,560.748C685.226,556.932 677.441,546.01 671.277,535.372C668.713,515.881 666.68,503.301 652.851,488.499C650.314,484.529 648.62,481.898 645.666,478.279Z" style="fill:rgb(214,158,22);fill-rule:nonzero;"/>
    </g>
    <g transform="matrix(1,0,0,1,0,-256)">
        <path d="M704.105,546.959C706.675,548.878 708.926,550.561 710.437,553.515C709.792,553.751 709.196,553.793 708.499,553.905C705.154,552.812 704.315,550.21 704.105,546.959Z" style="fill:rgb(186,131,24);fill-rule:nonzero;"/>
    </g>
    <g transform="matrix(1,0,0,1,0,-256)">
        <path d="M645.666,478.279C648.62,481.898 650.314,484.529 652.851,488.499C648.553,491.193 641.99,482.583 634.622,482.373L634.512,481.463C637.659,480.382 642.357,479.214 645.666,478.279Z" style="fill:white;fill-rule:nonzero;"/>
    </g>
    <g transform="matrix(1,0,0,1,0,-256)">
        <path d="M616.553,489.969C622.161,486.872 628.392,483.162 634.512,481.463L634.622,482.373C626.303,485.26 623.748,488.539 616.099,491.635C613.2,492.262 609.973,494.287 606.553,493.786C609.798,491.974 613.174,491.651 616.553,489.969Z" style="fill:rgb(243,233,206);fill-rule:nonzero;"/>
    </g>
    <g transform="matrix(1,0,0,1,0,-256)">
        <path d="M650.226,496.744C661.71,498.784 665.414,523.037 665.598,532.42C665.631,534.131 663.831,537.395 663.863,541.095L663.865,542.219C662.001,531.534 660.585,520.127 656.836,509.942C655.113,505.262 651.833,501.692 650.226,496.744Z" style="fill:rgb(234,206,130);fill-rule:nonzero;"/>
    </g>
    <g transform="matrix(1,0,0,1,0,-256)">
        <path d="M614.811,451.96L615.013,453.003C624.416,450.8 630.549,457.215 638.56,460.424C645.623,463.253 653.891,464.169 661.106,465.974C674.477,469.871 679.84,475.414 687.187,487.582C688.963,490.524 690.82,495.707 691.22,499.097C689.492,497.416 686.407,492.707 684.865,490.55C682.147,486.748 680.086,484.373 676.89,480.9C676.072,480.668 675.08,480.219 674.303,479.863C662.858,474.615 657.3,475.649 645.666,478.279C642.357,479.214 637.659,480.382 634.512,481.463C628.392,483.162 622.161,486.872 616.553,489.969C616.195,487.306 616.394,468.929 616.685,466.034L617.063,466.046L618.209,467.63C622.61,469.715 623.463,471.688 625.532,475.977C626.751,473.305 630.975,469.843 630.706,467.483C627.31,464.817 624.969,468.334 623.602,463.093C618.568,459.019 612.736,462.696 614.811,451.96Z" style="fill:rgb(248,196,17);fill-rule:nonzero;"/>
    </g>
    <g transform="matrix(1,0,0,1,0,-256)">
        <path d="M614.811,451.96L615.013,453.003C624.416,450.8 630.549,457.215 638.56,460.424C645.623,463.253 653.891,464.169 661.106,465.974C659.076,466.618 659.559,466.437 657.627,466.666C649.884,467.58 642.132,470.373 634.925,473.271C632.099,474.408 629.091,476.344 626.321,476.702L625.532,475.977C626.751,473.305 630.975,469.843 630.706,467.483C627.31,464.817 624.969,468.334 623.602,463.093C618.568,459.019 612.736,462.696 614.811,451.96Z" style="fill:rgb(243,233,206);fill-rule:nonzero;"/>
    </g>
    <g transform="matrix(1,0,0,1,0,-256)">
        <path d="M614.811,451.96L615.013,453.003C618.39,457.194 619.739,457.539 624.45,460.137L624.343,460.443L623.047,460.121L622.743,460.532C623.27,461.529 623.533,461.963 623.602,463.093C618.568,459.019 612.736,462.696 614.811,451.96Z" style="fill:rgb(229,204,145);fill-rule:nonzero;"/>
    </g>
    <g transform="matrix(1,0,0,1,0,-256)">
        <path d="M661.106,465.974C674.477,469.871 679.84,475.414 687.187,487.582C688.963,490.524 690.82,495.707 691.22,499.097C689.492,497.416 686.407,492.707 684.865,490.55C682.147,486.748 680.086,484.373 676.89,480.9C670.887,472.391 661.803,472.094 652.971,469.592C648.221,471.126 644.627,471.783 639.768,473.84C633.2,476.621 628.465,480.154 622.368,483.722C621.45,477.141 620.491,473.907 618.209,467.63C622.61,469.715 623.463,471.688 625.532,475.977L626.321,476.702C629.091,476.344 632.099,474.408 634.925,473.271C642.132,470.373 649.884,467.58 657.627,466.666C659.559,466.437 659.076,466.618 661.106,465.974Z" style="fill:rgb(229,204,145);fill-rule:nonzero;"/>
    </g>
    <g transform="matrix(1,0,0,1,0,-256)">
        <path d="M575.585,501.82C598.409,495.712 612.23,520.909 616.333,539.493C621.609,563.393 615.81,588.657 633.564,609.063C638.097,614.363 641.138,619.918 648.329,622.299L651.148,623.13C648.655,623.742 646.597,626.82 645.081,628.877C644.485,628.222 639.036,623.85 637.757,622.684C629.31,615.1 622.521,605.929 618.457,595.293C616.331,589.727 615.517,582.865 613.217,577.482C613.586,575.096 611.337,555.21 610.813,550.899C608.555,535.148 602.975,516.88 589.442,507.158C585.531,504.348 579.447,504.927 575.585,501.82Z" style="fill:rgb(248,196,17);fill-rule:nonzero;"/>
    </g>
    <g transform="matrix(1,0,0,1,0,-256)">
        <path d="M493.438,481.095C496.339,471.701 521.6,461.666 530.821,465.904C528.768,466.286 523.475,465.553 522.232,466.897C518.528,470.903 521.824,479.435 518.028,482.969C517.689,483.23 517.299,483.982 517.093,484.39C509.521,481.509 506.901,481.171 498.83,481.593C496.65,481.619 495.62,481.426 493.438,481.095Z" style="fill:rgb(243,233,206);fill-rule:nonzero;"/>
    </g>
    <g transform="matrix(1,0,0,1,0,-256)">
        <path d="M633.001,516.16C631.896,513.783 629.869,510.139 630.004,507.66L630.71,507.565C632.819,509.182 633.449,510.768 634.754,513.091C635.646,515.4 636.894,518.925 637.888,521.086C638.459,523.362 640.855,526.194 640.89,526.651C641.968,540.773 643.261,555.596 642.942,569.735C642.486,589.953 643.069,601.306 653.169,619.346L651.516,618.941C650.843,617.019 648.714,613.576 647.717,611.384C644.802,604.976 641.425,595.397 640.499,588.454C636.645,559.588 644.385,544.787 633.001,516.16Z" style="fill:url(#_Linear4);fill-rule:nonzero;"/>
    </g>
    <g transform="matrix(1,0,0,1,0,-256)">
        <path d="M511.289,337.098C513.1,325.858 518.255,321.045 529.486,319.413C523.518,324.112 517.747,334.072 511.289,337.098Z" style="fill:rgb(243,233,206);fill-rule:nonzero;"/>
    </g>
    <g transform="matrix(1,0,0,1,0,-256)">
        <path d="M638.904,606.211C642.87,609.872 647.156,618.117 651.516,618.941L653.169,619.346C653.841,620.542 654.411,621.593 655.03,622.816L651.148,623.13L648.329,622.299C647.827,619.003 641.082,611.441 638.904,606.211Z" style="fill:rgb(234,206,130);fill-rule:nonzero;"/>
    </g>
    <g transform="matrix(1,0,0,1,0,-256)">
        <path d="M633.001,516.16C631.7,517.536 631.112,517.637 629.296,518.422L628.68,518.684C628.179,520.257 630.393,520.336 630.177,522.383L629.015,522.802C626.987,522.189 627.84,520.256 625.975,517.638L623.295,517.664L623.122,517.151C626.142,516.655 628.618,516.637 631.214,514.616C631.343,511.48 627.009,509.427 628.917,505.915L630.04,505.83C632.966,507.44 633.815,509.383 635.081,512.394L634.754,513.091C633.449,510.768 632.819,509.182 630.71,507.565L630.004,507.66C629.869,510.139 631.896,513.783 633.001,516.16Z" style="fill:rgb(229,204,145);fill-rule:nonzero;"/>
    </g>
    <g transform="matrix(1,0,0,1,0,-256)">
        <path d="M539.006,495.978C536.949,493.036 532.704,483.786 534.528,480.462C536.201,479.864 535.367,479.942 537.127,480.224C538.974,483.676 536.484,489.269 539.484,494.179L539.006,495.978Z" style="fill:rgb(229,204,145);fill-rule:nonzero;"/>
    </g>
    <g transform="matrix(1,0,0,1,0,-256)">
        <path d="M539.484,494.179C541.451,494.058 543.975,493.575 545.487,494.603C546.123,496.078 545.842,496.797 545.593,498.391C543.615,498.062 542.867,496.903 539.278,496.544L539.006,495.978L539.484,494.179Z" style="fill-rule:nonzero;stroke:rgb(240,212,94);stroke-width:1px;"/>
    </g>
    <g transform="matrix(1,0,0,1,0,-256)">
        <path d="M585.19,371.443C591.846,373.708 595.803,387.781 597.001,394.09C596.275,393.425 586.505,374.106 585.19,371.443Z" style="fill:rgb(243,233,206);fill-rule:nonzero;"/>
    </g>
    <g transform="matrix(1,0,0,1,0,-256)">
        <path d="M625.836,585.765C627.688,586.953 629.944,594.976 629.814,597.245C626.366,597.422 625.819,588.403 625.836,585.765Z" style="fill:rgb(240,212,94);fill-rule:nonzero;"/>
    </g>
    <g transform="matrix(1,0,0,1,0,-256)">
        <path d="M801.113,809.351C813.051,809.027 835.304,808.523 846.436,810.082C880.759,814.889 884.338,856.704 883.587,884.252C882.972,906.797 883.88,928.958 870.126,948.998C857.438,964.858 844.577,963.823 826.113,963.74L801.443,963.612L801.113,809.351ZM826.878,838.686C826.463,870.077 826.964,902.529 826.863,934.059C836.907,934.261 844.71,935.859 851.879,927.358C857.775,917.831 858.754,902.117 858.576,890.743C858.35,876.247 860.762,850.829 847.398,841.362C842.965,838.222 832.404,838.678 826.878,838.686Z" style="fill:rgb(216,164,28);"/>
    </g>
    <g transform="matrix(1,0,0,1,0,-256)">
        <path d="M794.386,354.511L867.439,354.496C868.002,385.276 867.564,417.178 867.54,448.024L867.436,670.523L820.25,670.46L794.135,670.394C794.008,662.332 794.062,654.094 794.027,646.017L839.768,646.015L839.635,379.336C824.55,379.176 809.27,379.387 794.169,379.485L794.386,354.511Z" style="fill:rgb(248,196,17);fill-rule:nonzero;"/>
    </g>
    <g transform="matrix(1,0,0,1,0,-256)">
        <path d="M260.129,338.407L333.545,338.475L333.565,363.135C318.576,362.934 303.341,363.008 288.356,363.247L288.335,625.907C296.458,625.644 305.216,625.756 313.388,625.714L333.805,625.784L333.824,649.97L260.46,650.043L260.129,338.407Z" style="fill:rgb(248,196,17);fill-rule:nonzero;"/>
    </g>
    <g transform="matrix(1,0,0,1,0,-256)">
        <path d="M142.307,808.95C154.875,808.914 181.755,807.592 193.143,810.377C220.769,817.133 224.377,865.424 199.248,879.504C207.722,883.591 213.596,888.42 217.127,897.373C222.961,912.166 221.937,928.688 215.995,943.151C204.923,965.88 191.033,964.14 168.843,963.986L142.429,963.8L142.307,808.95ZM155.714,889.416C155.813,908.354 155.336,928.653 155.761,947.416C168.862,947.516 189.384,950.213 199.285,941.365C208.148,930.326 208.479,914.348 203.784,901.4C198.343,886.394 179.912,889.677 167.466,889.401C163.536,889.314 159.61,889.423 155.714,889.416ZM169.551,826.757L155.649,826.856L155.587,872.383C165.086,872.414 178.558,872.855 187.764,872.152C192.514,870.974 195.838,869.548 198.536,865.076C204.34,855.456 204.155,835.87 193.734,829.507C187.58,825.748 176.67,826.621 169.551,826.757Z" style="fill:rgb(240,212,94);"/>
    </g>
    <g transform="matrix(1,0,0,1,0,-256)">
        <path d="M686.197,809.022L710.317,809.061C717.354,823.579 726.849,841.263 734.66,855.401C741.979,842.056 752.775,822.854 758.76,809.38L782.967,809.398C782.208,860.278 782.453,912.724 782.547,963.671L756.585,963.767L756.795,902.529C756.744,891.169 756.611,879.722 756.823,868.371C749.215,880.77 741.736,894.327 734.243,906.983C726.387,893.724 719.727,880.815 711.538,867.514L711.416,963.541L686.106,963.583L686.197,809.022Z" style="fill:rgb(210,155,25);fill-rule:nonzero;"/>
    </g>
    <g transform="matrix(1,0,0,1,0,-256)">
        <path d="M500.546,808.522L513.501,808.517C531.911,845.224 548.47,884.53 566.731,921.706L566.958,808.621L580.935,808.553C580.95,860.014 580.465,912.495 581.418,963.852L574.375,963.791L569.306,963.669C555.858,932.423 540.031,901.852 526.315,870.683C522.772,862.631 518.8,853.601 514.512,845.971C515.484,856.151 515.253,873.001 515.327,883.589L515.255,963.619L500.46,963.629C501.053,912.235 500.564,859.966 500.546,808.522Z" style="fill:rgb(240,212,94);fill-rule:nonzero;"/>
    </g>
    <g transform="matrix(1,0,0,1,0,-256)">
        <path d="M319.405,808.322L330.474,808.393C332.71,813.454 334.997,818.7 337.401,823.67C353.757,857.492 369.376,891.554 385.995,925.258C386.503,886.652 385.937,847.248 385.947,808.537L399.555,808.555L399.962,962.125L399.875,962.883C397.925,964.251 390.049,963.575 387.114,963.49C382.85,955.941 376.703,941.884 372.871,933.742L348.699,882.559C343.666,871.91 338.433,860.248 332.93,849.964L333.41,963.515L319.394,963.501L319.405,808.322Z" style="fill:rgb(240,212,94);fill-rule:nonzero;"/>
    </g>
    <g transform="matrix(1,0,0,1,0,-256)">
        <path d="M260.883,808.153L273.05,808.095C277.046,825.477 283.37,846.168 288.113,863.493L315.25,963.524L300.375,963.523C296.154,949.069 292.245,934.261 288.102,919.722L274.125,919.791L245.586,919.669L233.744,963.522L218.919,963.534C223.027,944.944 228.838,926.378 233.553,907.923C242.07,874.583 252.424,841.473 260.883,808.153ZM266.784,835.661C260.865,857.677 254.916,880.386 249.593,902.562L268.625,902.67L284.32,902.712C280.281,885.063 274.78,867.591 270.618,849.937C269.913,846.95 267.988,837.951 266.784,835.661Z" style="fill:rgb(240,212,94);"/>
    </g>
    <g transform="matrix(1,0,0,1,0,-256)">
        <path d="M627.93,808.67L640.962,808.623L660.2,882.144C667.249,909.201 674.151,936.723 681.625,963.649L666.183,963.594C662.071,949.153 658.67,934.476 654.549,919.89L638.062,919.968L612.293,919.949C608.364,934.305 604.727,949.248 601.044,963.709L585.344,963.792C587.711,957.466 590.075,948.163 591.886,941.566L603.627,897.329C611.447,867.958 620.57,838.101 627.93,808.67ZM633.619,837.332C627.791,859.187 622.366,881.369 616.325,903.112L634.25,903.191L650.96,903.157C649.933,898.42 634.697,838.852 633.619,837.332Z" style="fill:rgb(240,212,94);"/>
    </g>
    <g transform="matrix(1,0,0,1,0,-256)">
        <path d="M444.72,808.477L457.25,808.51C458.067,811.363 458.883,814.414 459.571,817.307C471.192,866.192 487.681,914.689 498.905,963.581L484.144,963.577C479.81,949.72 475.94,934.097 472.177,919.948L456.75,919.992L429.802,919.977C426.604,933.523 421.69,949.874 417.978,963.562L403.003,963.581L433.238,852.254C437.108,837.674 441.286,823.153 444.72,808.477ZM450.844,834.896C445.128,857.912 439.868,879.916 433.761,902.889L450.934,902.967L467.912,902.956C466.359,896.39 451.951,836.287 450.844,834.896Z" style="fill:rgb(240,212,94);"/>
    </g>
    <g transform="matrix(1,0,0,1,0,-256)">
        <path d="M157.023,367.662L190.953,367.57C191.243,427.362 188.807,487.781 188.364,547.585L188.294,548.294C186.45,549.633 163.452,549.086 159.477,549.081L157.929,436.587C157.6,413.919 156.852,390.26 157.023,367.662Z" style="fill:rgb(248,196,17);fill-rule:nonzero;"/>
    </g>
    <g transform="matrix(1,0,0,1,0,-256)">
        <path d="M471.005,497.32C476.441,488.9 483.879,483.979 493.438,481.095C495.62,481.426 496.65,481.619 498.83,481.593C506.901,481.171 509.521,481.509 517.093,484.39C519.868,485.66 528.297,489.309 530.128,491.107C529.436,491.614 528.321,492.495 527.611,492.874C529.609,494.017 529.924,494.177 531.577,495.727C527.7,496.902 526.96,494.674 522.434,494.279C511.497,488.534 505.837,488.388 494.023,490.079L493.742,490.402C490.616,494.263 486.803,498.292 484.611,502.694C480.013,511.933 477.761,522.096 474.615,531.772C470.31,545.014 461.718,559.866 449.459,567.173L448.173,565.525C447.233,564.704 447.153,564.366 446.514,563.27C445.013,562.204 443.79,561.76 442.119,561.033C451.298,552.768 454.484,533.674 458.594,522.467C462.008,513.157 464.986,505.349 471.005,497.32Z" style="fill:rgb(229,204,145);fill-rule:nonzero;"/>
    </g>
    <g transform="matrix(1,0,0,1,0,-256)">
        <path d="M448.173,565.525C463.139,542.64 460.543,514.661 480.996,497.306C483.484,495.195 490.491,490.074 493.742,490.402C490.616,494.263 486.803,498.292 484.611,502.694C480.013,511.933 477.761,522.096 474.615,531.772C470.31,545.014 461.718,559.866 449.459,567.173L448.173,565.525Z" style="fill:rgb(248,196,17);fill-rule:nonzero;"/>
    </g>
    <g transform="matrix(1,0,0,1,0,-256)">
        <path d="M471.005,497.32L474.154,496.799C465.226,507.802 464.131,515.862 460.003,528.946C457.857,535.745 450.855,558.456 446.514,563.27C445.013,562.204 443.79,561.76 442.119,561.033C451.298,552.768 454.484,533.674 458.594,522.467C462.008,513.157 464.986,505.349 471.005,497.32Z" style="fill:rgb(243,233,206);fill-rule:nonzero;"/>
    </g>
    <g transform="matrix(1,0,0,1,0,-256)">
        <path d="M494.023,490.079C500.602,482.605 519.895,490.459 527.611,492.874C529.609,494.017 529.924,494.177 531.577,495.727C527.7,496.902 526.96,494.674 522.434,494.279C511.497,488.534 505.837,488.388 494.023,490.079Z" style="fill:rgb(248,196,17);fill-rule:nonzero;"/>
    </g>
    <g transform="matrix(1,0,0,1,0,-256)">
        <path d="M471.005,497.32C476.441,488.9 483.879,483.979 493.438,481.095C495.62,481.426 496.65,481.619 498.83,481.593C490.174,483.841 479.999,489.824 474.154,496.799L471.005,497.32Z" style="fill:rgb(243,233,206);fill-rule:nonzero;"/>
    </g>
    <g transform="matrix(1,0,0,1,0,-256)">
        <path d="M170.605,577.172C182.961,575.349 194.458,583.88 196.293,596.234C198.129,608.589 189.608,620.094 177.256,621.941C164.887,623.79 153.362,615.256 151.525,602.885C149.687,590.514 158.233,578.998 170.605,577.172Z" style="fill:rgb(248,196,17);fill-rule:nonzero;"/>
    </g>
    <g transform="matrix(1,0,0,1,0,-256)">
        <path d="M663.897,618.169C664.952,627.87 652.716,631.963 645.081,628.877C646.597,626.82 648.655,623.742 651.148,623.13L655.03,622.816C659.321,622.139 660.606,620.838 663.897,618.169Z" style="fill:rgb(77,58,43);fill-rule:nonzero;"/>
    </g>
    <g transform="matrix(1,0,0,1,0,-256)">
        <path d="M442.119,561.033C443.79,561.76 445.013,562.204 446.514,563.27C447.153,564.366 447.233,564.704 448.173,565.525L449.459,567.173C446.144,568.078 442.105,568.462 440.679,564.559C440.955,562.596 440.973,562.696 442.119,561.033Z" style="fill:rgb(248,196,17);fill-rule:nonzero;"/>
    </g>
    <defs>
        <linearGradient id="_Linear1" x1="0" y1="0" x2="1" y2="0" gradientUnits="userSpaceOnUse" gradientTransform="matrix(-122.09,22.3027,-22.3027,-122.09,639.556,461.015)"><stop offset="0" style="stop-color:rgb(225,202,143);stop-opacity:1"/><stop offset="1" style="stop-color:rgb(254,248,214);stop-opacity:1"/></linearGradient>
        <linearGradient id="_Linear2" x1="0" y1="0" x2="1" y2="0" gradientUnits="userSpaceOnUse" gradientTransform="matrix(-67.0562,-61.8953,61.8953,-67.0562,571.139,632.934)"><stop offset="0" style="stop-color:rgb(205,148,23);stop-opacity:1"/><stop offset="1" style="stop-color:rgb(243,202,39);stop-opacity:1"/></linearGradient>
        <linearGradient id="_Linear3" x1="0" y1="0" x2="1" y2="0" gradientUnits="userSpaceOnUse" gradientTransform="matrix(8.82278,-4.69178,4.69178,8.82278,432.065,655.241)"><stop offset="0" style="stop-color:rgb(71,54,36);stop-opacity:1"/><stop offset="1" style="stop-color:rgb(114,80,44);stop-opacity:1"/></linearGradient>
        <linearGradient id="_Linear4" x1="0" y1="0" x2="1" y2="0" gradientUnits="userSpaceOnUse" gradientTransform="matrix(-25.209,-0.737,0.737,-25.209,653.597,563.368)"><stop offset="0" style="stop-color:rgb(237,171,53);stop-opacity:1"/><stop offset="1" style="stop-color:rgb(229,190,68);stop-opacity:1"/></linearGradient>
    </defs>
</svg>
